<?xml version="1.0" standalone="no"?>
<!DOCTYPE svg PUBLIC "-//W3C//DTD SVG 20010904//EN"
 "http://www.w3.org/TR/2001/REC-SVG-20010904/DTD/svg10.dtd">
<svg version="1.0" xmlns="http://www.w3.org/2000/svg"
 width="587.000000pt" height="900.000000pt" viewBox="0 0 587.000000 900.000000"
 preserveAspectRatio="xMidYMid meet">
<metadata>
Created by potrace 1.16, written by Peter Selinger 2001-2019
</metadata>
<g transform="translate(0.000000,900.000000) scale(0.100000,-0.100000)"
fill="#000000" stroke="none">
<path d="M610 8988 c0 -7 18 -46 41 -87 23 -42 46 -104 55 -145 14 -69 26 -88
49 -80 12 5 29 -41 40 -113 4 -24 11 -43 15 -43 5 0 12 -10 15 -21 5 -16 0
-27 -20 -43 -26 -21 -28 -26 -34 -147 -6 -108 -10 -129 -30 -157 -12 -18 -27
-32 -32 -32 -5 0 -9 -5 -9 -10 0 -11 -10 -24 -42 -60 -14 -16 -28 -18 -83 -15
-36 2 -86 7 -110 11 l-45 6 33 -35 c36 -38 85 -67 116 -67 11 0 28 12 38 28
21 32 43 51 61 52 7 0 26 10 42 21 19 15 38 20 59 17 17 -2 31 -1 31 4 0 4 6
8 14 8 21 0 26 -49 7 -68 -24 -25 -38 -60 -52 -126 -12 -64 -28 -106 -39 -106
-16 0 -30 -51 -20 -71 10 -19 12 -19 35 -2 14 10 27 26 30 36 4 9 11 17 16 17
5 0 9 8 9 19 0 10 9 21 20 24 11 3 18 1 15 -3 -3 -5 -1 -30 5 -56 11 -49 2
-72 -31 -77 -29 -5 -39 -19 -39 -58 0 -25 8 -51 21 -69 18 -23 21 -36 15 -72
-4 -23 -15 -52 -24 -63 -10 -11 -25 -36 -34 -56 -15 -34 -15 -36 14 -75 40
-54 88 -67 88 -24 0 20 60 70 84 70 8 0 16 10 18 23 2 12 5 -3 6 -34 1 -57 16
-110 29 -108 5 0 22 9 38 19 62 40 64 40 70 30 3 -5 2 -10 -4 -10 -6 0 -8 -7
-5 -15 4 -9 1 -36 -5 -62 -12 -48 -4 -87 24 -123 7 -8 16 -25 19 -37 6 -18 3
-23 -11 -23 -10 0 -42 -23 -71 -50 -29 -28 -59 -50 -67 -50 -14 0 -38 -66 -29
-81 3 -5 -24 -36 -60 -70 -64 -61 -96 -115 -96 -164 0 -13 -5 -27 -10 -30 -6
-4 -8 -10 -5 -15 3 -5 2 -18 -3 -27 -6 -10 -15 -72 -21 -138 -6 -66 -14 -130
-17 -142 -4 -15 1 -27 15 -39 12 -10 21 -28 21 -39 0 -21 16 -53 22 -45 2 3
13 23 23 45 28 57 39 65 82 65 32 0 41 5 56 31 9 17 17 36 17 43 0 48 103 65
147 24 28 -26 28 -32 4 -66 -10 -15 -21 -39 -25 -54 -5 -24 -11 -28 -42 -28
-38 0 -94 -27 -94 -45 0 -7 -11 -22 -24 -34 -14 -13 -22 -29 -19 -37 3 -8 -1
-14 -10 -14 -9 0 -19 9 -22 20 -7 23 -44 27 -64 8 -11 -10 -14 -10 -18 0 -3 6
-12 12 -20 12 -9 0 -13 -6 -10 -15 4 -10 -5 -17 -30 -24 -47 -13 -150 -3 -157
15 -7 17 -106 20 -106 3 0 -6 9 -23 20 -38 10 -16 24 -48 29 -72 6 -25 16 -59
24 -77 13 -31 13 -31 38 -14 47 33 129 54 129 32 0 -5 9 -10 21 -10 24 0 49
-52 49 -102 0 -55 14 -65 41 -29 15 21 26 28 34 21 8 -7 15 0 22 24 6 19 7 38
3 43 -19 21 -27 70 -15 93 9 16 14 19 20 10 4 -7 2 -16 -5 -20 -6 -4 -10 -18
-8 -31 3 -21 4 -21 19 -7 14 14 17 11 32 -33 17 -45 17 -50 1 -74 -16 -24 -16
-26 3 -43 26 -22 37 -56 36 -109 -1 -31 3 -43 13 -43 33 0 31 -85 -3 -107 -19
-13 -24 -12 -42 6 -21 21 -65 25 -88 8 -22 -16 -14 -57 17 -90 16 -18 30 -37
30 -44 0 -6 15 -21 33 -32 34 -21 34 -21 72 -1 22 11 35 20 30 20 -6 1 3 8 19
16 36 20 48 5 34 -40 -11 -34 -13 -68 -5 -90 7 -19 72 -29 97 -16 13 7 20 7
20 0 0 -5 18 -10 39 -10 35 0 40 -3 50 -31 6 -18 11 -47 11 -65 0 -47 43 -85
56 -50 3 8 12 17 20 20 17 7 63 -23 64 -40 0 -6 14 -17 31 -24 20 -9 28 -18
24 -28 -3 -8 3 -24 12 -35 17 -20 17 -20 0 -14 -25 9 -74 -29 -81 -64 -13 -67
-98 -58 -168 17 -38 41 -109 84 -137 84 -6 0 -18 11 -27 25 -9 14 -25 25 -35
25 -11 0 -19 5 -19 10 0 6 -18 10 -40 10 -32 0 -40 -4 -40 -19 0 -10 -3 -33
-6 -50 -5 -24 -3 -31 10 -31 23 0 55 -31 49 -46 -3 -8 -13 -14 -23 -14 -28 0
-110 40 -110 53 0 8 -13 11 -38 9 -42 -4 -42 -3 -68 83 -6 20 -17 31 -32 33
-30 5 -28 22 3 22 34 0 32 20 -2 22 -49 2 -68 -2 -80 -19 -11 -15 -14 -15 -37
0 -13 9 -27 26 -31 37 -9 29 -61 24 -59 -5 2 -25 26 -88 37 -96 5 -3 -3 -19
-18 -35 -15 -16 -33 -41 -41 -56 -8 -15 -25 -44 -39 -64 -23 -34 -24 -38 -8
-49 9 -7 13 -17 9 -23 -4 -7 -1 -12 6 -12 7 0 21 -14 30 -30 14 -24 24 -30 50
-30 71 0 103 -61 55 -106 -30 -28 -83 -38 -99 -18 -7 8 -18 20 -24 27 -6 7
-18 24 -27 38 -13 19 -29 28 -59 32 -52 7 -87 -10 -125 -60 -15 -21 -33 -42
-39 -48 -16 -15 -76 -110 -125 -199 -24 -43 -61 -97 -82 -118 l-37 -40 0 -458
0 -459 24 -36 c26 -38 32 -65 41 -205 7 -96 -10 -336 -26 -378 -12 -29 -13
-135 -3 -190 12 -63 54 -51 54 15 0 18 18 66 41 110 l42 78 4 355 c3 278 7
368 19 416 25 99 141 263 316 445 81 85 177 195 213 244 37 50 90 115 119 145
29 30 78 89 109 130 99 135 143 173 237 210 92 35 92 35 260 -1 25 -5 78 -11
119 -13 56 -2 76 -7 83 -20 5 -9 14 -14 19 -10 6 3 -3 18 -18 33 -16 15 -35
45 -43 67 -12 30 -25 43 -58 59 -27 12 -42 26 -42 38 0 10 4 16 9 13 17 -11
50 77 52 139 2 33 6 68 11 78 7 14 3 20 -22 28 -37 13 -35 33 4 37 21 3 29 -1
33 -17 3 -11 9 -18 14 -15 5 3 17 1 27 -5 11 -6 24 -6 32 -1 10 6 24 -1 47
-26 17 -19 34 -40 36 -47 3 -9 8 -9 18 1 7 6 28 12 46 12 22 0 36 6 43 20 14
26 19 25 53 -4 19 -17 29 -36 32 -60 3 -32 -1 -39 -25 -51 -16 -8 -41 -15 -55
-15 -50 0 -92 -25 -99 -60 -5 -28 -1 -37 23 -61 31 -29 33 -69 4 -69 -10 0
-12 -6 -8 -20 8 -27 -35 -70 -71 -70 -23 0 -25 -2 -13 -16 22 -26 92 -71 124
-78 101 -24 128 -25 158 -9 42 21 115 12 139 -17 24 -30 23 -49 -2 -23 -28 30
-81 46 -114 34 -27 -11 -36 -29 -13 -28 28 1 77 -16 77 -28 0 -8 11 -12 31
-11 18 1 34 -4 39 -13 5 -9 10 -13 10 -9 0 4 13 3 29 -2 19 -5 33 -4 40 3 8 8
11 6 11 -7 0 -9 5 -14 10 -11 6 3 10 0 10 -7 0 -9 3 -9 10 2 7 10 12 12 18 4
4 -6 24 -14 44 -18 35 -6 38 -5 51 25 12 31 13 31 31 14 13 -14 16 -26 11 -54
-4 -20 -10 -40 -15 -46 -4 -5 -17 -37 -28 -70 -12 -33 -28 -78 -38 -100 -9
-22 -34 -89 -55 -149 -21 -60 -43 -114 -47 -120 -5 -6 -15 -33 -21 -61 -7 -27
-17 -59 -21 -70 -5 -11 -21 -58 -35 -105 -15 -47 -33 -98 -40 -115 -7 -16 -21
-56 -31 -88 -10 -31 -21 -57 -26 -57 -4 0 -8 -11 -8 -24 0 -30 -31 -126 -41
-126 -4 0 -7 -15 -7 -32 0 -35 -55 -196 -90 -263 -11 -22 -32 -92 -47 -155
-34 -149 -49 -199 -95 -320 -21 -55 -51 -145 -66 -200 -15 -55 -31 -100 -36
-100 -4 0 -8 -8 -8 -17 0 -19 -48 -180 -81 -271 -10 -28 -18 -53 -17 -55 2 -3
-21 -77 -32 -102 -5 -11 -18 -47 -29 -80 -11 -33 -26 -78 -34 -100 -8 -22 -17
-65 -21 -97 -6 -60 -30 -132 -53 -159 -7 -8 -13 -23 -13 -32 0 -9 -4 -18 -9
-22 -5 -3 -13 -20 -17 -38 -3 -17 -20 -64 -35 -103 -16 -40 -30 -80 -32 -90
-2 -11 -11 -37 -21 -59 -9 -22 -15 -50 -13 -62 2 -13 0 -23 -4 -23 -5 0 -9
-10 -10 -22 0 -14 -3 -17 -6 -9 -3 7 -19 -36 -34 -98 -16 -61 -38 -129 -50
-150 -11 -22 -18 -45 -14 -51 3 -5 1 -10 -5 -10 -26 0 -100 56 -100 75 0 7 -9
20 -21 31 -12 10 -32 39 -45 64 -34 63 -75 117 -102 136 -13 9 -32 36 -42 59
-12 27 -27 46 -42 50 -13 4 -40 23 -61 41 -40 37 -57 42 -57 19 0 -9 -8 -19
-17 -22 -10 -4 -24 -13 -31 -20 -11 -11 -7 -13 21 -13 36 0 74 -30 62 -49 -9
-16 -46 -13 -67 5 -14 13 -21 14 -32 5 -8 -7 -19 -10 -24 -7 -5 3 -24 -4 -42
-16 -31 -18 -32 -21 -17 -33 16 -11 16 -13 -2 -29 -10 -9 -41 -25 -67 -35 -41
-16 -50 -23 -52 -47 -4 -38 -38 -64 -75 -57 -20 4 -32 1 -41 -12 -9 -13 -15
-15 -20 -6 -6 9 -11 9 -22 0 -7 -6 -11 -15 -8 -20 5 -9 -36 -29 -62 -29 -10 0
-13 7 -8 26 6 25 6 25 -42 21 -29 -3 -48 -9 -47 -16 2 -6 -13 -17 -32 -25 -27
-12 -35 -21 -35 -41 0 -23 2 -25 22 -14 13 6 30 17 38 24 8 7 26 15 38 18 22
5 23 4 9 -11 -9 -9 -36 -26 -61 -37 l-46 -20 0 -127 c0 -102 3 -128 14 -128 7
0 19 6 25 14 7 8 26 18 42 21 25 6 28 10 23 31 -5 21 -3 24 19 24 21 0 24 -4
19 -26 -4 -25 -3 -26 22 -20 34 8 33 -4 -4 -43 -25 -28 -36 -32 -87 -34 -32
-1 -61 -6 -65 -12 -4 -5 -8 -54 -8 -107 l0 -98 2935 0 2935 0 0 815 c0 628 -3
815 -12 815 -9 0 -9 3 0 12 9 9 12 201 12 800 l0 789 -31 30 c-16 16 -49 41
-72 55 -49 31 -171 156 -194 199 -9 17 -33 50 -55 75 -21 25 -70 83 -109 130
-39 47 -103 117 -142 156 -83 81 -137 145 -166 197 -39 70 -74 121 -133 196
-129 161 -180 213 -333 331 -10 8 -34 29 -52 46 -45 44 -60 48 -78 20 -11 -17
-14 -41 -11 -90 2 -36 0 -69 -5 -72 -17 -10 -9 -42 12 -47 12 -3 18 -10 14
-17 -4 -7 -1 -10 6 -9 8 1 30 -2 49 -8 19 -5 52 -8 73 -5 20 2 37 0 37 -5 0
-19 -32 -53 -50 -53 -10 0 -22 -5 -25 -11 -8 -12 -45 22 -45 41 0 6 -5 8 -12
3 -7 -4 -20 -8 -28 -8 -11 0 -15 -11 -15 -40 l0 -40 97 0 c92 0 124 -8 103
-23 -18 -13 -52 -87 -58 -127 -4 -24 -3 -32 2 -21 9 23 24 6 16 -16 -7 -18 30
-66 41 -55 5 5 9 29 10 53 1 28 9 53 20 65 18 20 19 20 66 -31 53 -57 55 -64
33 -87 -14 -14 -13 -18 15 -44 16 -16 30 -40 30 -52 0 -30 -48 -75 -80 -76
-54 0 -103 -10 -111 -23 -5 -7 -9 -24 -9 -38 0 -18 -10 -31 -39 -47 -38 -22
-39 -22 -56 -3 -19 21 -50 26 -59 11 -3 -5 -23 -12 -43 -16 -21 -3 -48 -13
-60 -21 -26 -16 -48 -83 -33 -98 6 -6 10 -24 10 -42 0 -17 7 -37 15 -44 32
-27 12 -67 -31 -62 -11 2 -32 -2 -47 -7 -20 -8 -27 -7 -27 2 0 7 -7 4 -15 -6
-7 -11 -11 -25 -9 -32 10 -25 -14 -25 -50 0 -20 14 -49 27 -64 31 -75 16 -91
26 -111 65 -19 36 -19 39 -3 39 38 0 99 -24 155 -61 32 -21 60 -39 63 -39 8 0
4 39 -5 44 -5 3 -6 20 -4 38 12 80 9 84 -112 133 -86 35 -117 46 -177 59 -18
4 -34 20 -51 51 -14 25 -23 45 -19 45 32 -2 131 -34 192 -62 41 -19 88 -38
103 -42 16 -4 40 -18 53 -31 13 -13 24 -20 24 -15 0 6 5 10 11 10 5 0 7 -4 4
-10 -3 -5 -1 -10 5 -10 6 0 8 10 4 26 -5 19 -3 25 4 20 8 -5 10 -1 6 9 -4 10
-16 15 -33 13 -25 -3 -26 -2 -26 54 0 57 0 58 -40 79 -22 12 -84 35 -137 50
-54 16 -108 34 -120 40 -13 7 -52 20 -88 28 -54 13 -68 22 -87 50 -13 19 -23
38 -23 43 0 14 47 2 195 -47 125 -41 163 -56 249 -96 22 -10 43 -16 48 -13 11
7 10 44 -1 44 -6 0 -10 8 -10 18 -1 101 -9 113 -85 127 -22 4 -83 23 -135 43
-91 34 -363 113 -369 107 -2 -1 7 -19 19 -39 l21 -37 -28 13 c-16 7 -42 22
-59 34 -16 12 -55 32 -85 44 -59 23 -155 67 -180 81 -8 5 -52 27 -97 49 -57
29 -96 56 -130 93 -26 29 -84 77 -128 107 -44 29 -82 54 -84 56 -2 2 -3 21 -3
43 1 26 -5 45 -19 57 -14 13 -19 30 -19 68 l1 51 15 -28 c19 -35 22 -32 26 16
1 20 3 37 4 37 2 0 10 -7 18 -16 18 -18 22 -39 4 -28 -7 4 -8 3 -4 -5 4 -6 12
-9 17 -6 11 8 69 -32 69 -47 0 -6 -10 -3 -22 8 -13 10 -8 3 10 -17 34 -37 44
-61 15 -38 -15 13 -15 12 -2 -8 7 -12 16 -18 19 -13 3 5 23 -11 44 -36 31 -37
62 -57 161 -104 67 -32 134 -62 148 -66 28 -6 47 -24 27 -24 -6 0 -21 5 -32
11 -12 6 -18 7 -14 1 3 -6 20 -15 36 -21 18 -6 28 -6 25 -1 -10 17 8 11 58
-18 26 -16 44 -32 40 -36 -4 -4 1 -4 11 0 14 5 17 3 14 -7 -2 -7 5 -22 16 -32
l21 -18 -25 5 c-23 5 -23 4 3 -6 15 -7 27 -15 27 -20 0 -4 7 -8 15 -8 17 0
175 -44 255 -71 240 -80 326 -111 335 -120 17 -17 45 -10 45 11 0 11 5 20 11
20 6 0 3 8 -7 18 -10 9 -21 17 -25 17 -4 0 -11 3 -15 8 -4 4 3 7 15 7 19 0 22
4 18 33 -3 26 -8 32 -25 30 -17 -2 -22 3 -22 20 -1 20 -2 20 -11 4 -9 -15 -19
-16 -62 -11 -29 4 -59 10 -69 15 -11 6 -18 4 -22 -7 -4 -10 3 -18 21 -25 39
-14 20 -23 -21 -9 -20 6 -42 10 -48 8 -13 -5 82 -39 120 -44 25 -3 38 -11 31
-18 -6 -6 -132 29 -219 60 -36 12 -99 32 -140 44 -155 44 -195 58 -195 72 0 7
-6 17 -12 21 -20 13 -15 29 7 22 43 -14 17 5 -33 23 -29 11 -78 35 -108 52
-67 40 -199 92 -199 79 0 -6 -4 -8 -9 -5 -5 3 -7 14 -4 24 5 22 -12 37 -86 77
-45 24 -61 40 -84 83 -17 31 -44 63 -66 78 -50 33 -81 76 -81 114 0 16 2 30 4
30 3 0 25 -14 51 -31 37 -25 47 -39 56 -75 13 -49 41 -76 117 -112 27 -13 42
-16 42 -9 0 21 -14 34 -66 60 -52 26 -96 65 -58 50 10 -4 33 -15 49 -25 17
-10 38 -18 47 -18 9 0 44 -12 78 -27 44 -19 58 -29 48 -35 -9 -7 -8 -8 5 -4
21 7 60 -11 52 -23 -2 -5 1 -8 8 -8 25 1 77 -28 73 -40 -3 -7 -2 -13 2 -14 30
-3 62 -4 62 -2 0 2 -11 8 -25 13 -14 5 -29 20 -34 32 -11 28 4 36 27 15 9 -8
65 -29 123 -46 113 -33 133 -37 109 -21 -12 8 -10 10 10 10 43 0 202 -30 265
-50 77 -25 189 -50 221 -50 26 0 41 21 28 42 -4 7 -9 34 -11 62 -2 27 -4 51
-6 52 -2 2 -66 4 -143 6 -76 1 -157 6 -178 10 -55 12 -79 5 -43 -12 17 -8 23
-16 16 -20 -6 -4 4 -7 22 -7 60 2 155 -5 137 -10 -14 -4 -15 -8 -5 -24 6 -10
19 -19 27 -19 13 0 13 1 0 10 -10 8 5 9 50 4 82 -8 89 -14 19 -15 l-54 -1 45
-13 c25 -7 38 -13 29 -14 -17 -1 -123 17 -154 26 l-20 6 20 8 c15 6 12 8 -15
7 -32 0 -70 6 -234 36 -33 6 -61 16 -63 22 -3 8 10 8 44 -1 65 -16 133 -25
133 -16 0 4 -35 12 -77 18 -43 6 -91 17 -108 23 -27 11 -28 13 -10 19 17 7 16
9 -9 15 -16 4 -26 9 -23 12 4 4 104 -13 187 -33 24 -6 24 -5 9 13 -30 35 -14
44 69 38 42 -2 94 -7 114 -9 21 -3 47 0 57 7 16 10 25 9 45 -1 27 -15 46 -47
22 -38 -8 3 -20 0 -26 -8 -9 -11 -5 -15 25 -21 43 -8 50 -3 35 25 -16 32 -3
45 26 26 33 -21 31 -7 -9 86 -23 54 -37 74 -47 71 -12 -4 -13 -2 -3 9 13 16 1
62 -35 135 -11 22 -23 51 -26 66 l-6 27 42 -24 c49 -28 106 -32 146 -11 15 8
57 46 94 83 l68 69 -36 35 -35 34 -19 -22 c-19 -24 -30 -29 -30 -14 0 18 356
363 468 454 27 20 32 21 32 4 0 -16 47 -61 73 -70 25 -9 22 -19 -19 -58 -19
-19 -32 -26 -29 -16 4 9 12 17 18 17 6 0 7 3 4 6 -10 10 -37 -16 -37 -35 0
-17 -69 -91 -84 -91 -5 0 -3 7 4 15 7 8 9 15 5 15 -4 0 -39 -31 -79 -69 -39
-38 -87 -82 -106 -97 -19 -15 18 25 84 89 77 75 115 120 110 128 -4 7 -3 10 4
5 6 -3 27 8 47 25 l36 32 -33 34 c-18 18 -36 32 -40 31 -20 -8 -387 -371 -382
-379 3 -6 31 16 63 48 117 120 314 304 319 298 3 -3 0 -11 -6 -17 -7 -7 -12
-19 -12 -27 0 -9 -5 -23 -10 -31 -9 -13 -11 -13 -19 0 -11 15 -21 11 -25 -12
-5 -30 -18 -58 -27 -58 -5 0 -9 5 -9 10 0 6 -4 10 -10 10 -5 0 -10 -6 -10 -13
0 -21 -24 -66 -38 -72 -7 -2 -10 -1 -7 4 3 5 1 12 -4 16 -6 3 -15 -13 -21 -35
-11 -42 -19 -47 -37 -29 -9 9 -15 1 -24 -30 -12 -41 -22 -50 -34 -31 -9 15
-25 12 -25 -4 0 -7 -7 -26 -15 -42 -19 -38 -4 -54 27 -29 13 11 1 -5 -27 -35
-27 -30 -41 -48 -30 -40 11 8 25 19 30 25 9 9 68 60 185 160 19 17 50 46 68
65 19 19 38 34 44 32 6 -2 43 22 82 51 39 30 81 60 94 66 15 8 21 18 17 30 -3
11 10 31 41 61 56 54 246 284 297 359 44 63 45 85 11 154 -31 61 -63 102 -200
257 -114 128 -203 202 -326 272 -157 89 -156 87 -235 205 -71 106 -126 167
-218 240 l-40 32 38 -6 c24 -4 37 -2 37 6 0 6 -5 11 -11 11 -5 0 -27 11 -47
25 -20 14 -47 25 -60 25 -13 0 -44 10 -69 21 -26 12 -70 25 -97 30 -28 4 -75
13 -105 18 -47 9 -60 7 -102 -11 -49 -20 -119 -19 -119 2 0 6 -9 10 -20 10
-29 0 -82 -29 -75 -40 9 -15 25 -12 25 5 0 8 5 15 10 15 13 0 13 -6 -1 -31 -5
-11 -15 -16 -21 -13 -7 4 -8 2 -4 -5 4 -6 4 -17 -1 -24 -5 -7 -16 -32 -23 -57
l-14 -45 -7 45 c-6 44 -6 44 -7 8 -1 -20 -5 -43 -8 -51 -3 -9 3 -16 15 -20 26
-7 27 -27 2 -27 -14 0 -19 -7 -17 -25 0 -14 6 -25 13 -25 12 0 43 -54 43 -77
0 -7 -11 -13 -24 -13 -13 0 -26 -7 -30 -15 -3 -8 -12 -15 -20 -15 -19 0 -27
88 -9 95 8 2 13 -4 13 -15 0 -27 19 -35 38 -16 15 14 15 16 1 16 -30 0 -46 33
-47 94 -1 57 -6 75 -17 64 -3 -3 -5 -60 -6 -127 0 -68 -5 -134 -10 -148 -13
-34 -7 -37 19 -13 19 18 21 18 25 2 3 -12 5 -11 6 6 0 12 5 22 10 22 16 0 33
-29 25 -42 -5 -7 -9 -21 -9 -30 -1 -10 -4 -21 -8 -24 -10 -10 -59 -8 -66 3 -6
11 -40 14 -39 4 2 -25 -4 -41 -14 -35 -7 5 -9 1 -6 -13 3 -11 1 -28 -4 -37 -9
-16 -11 -16 -31 1 -12 10 -19 14 -15 9 11 -14 -36 -133 -72 -179 -8 -11 -27
-32 -42 -47 -16 -15 -28 -32 -28 -38 0 -5 -8 -13 -17 -17 -14 -6 -9 -11 26
-26 48 -21 69 -12 48 22 -18 29 8 51 57 47 33 -2 41 -7 41 -23 0 -12 -6 -20
-16 -19 -11 1 -15 -5 -12 -16 3 -10 0 -27 -6 -39 -11 -19 -4 -24 89 -71 55
-28 133 -63 174 -79 89 -36 144 -67 186 -104 29 -26 92 -59 150 -77 l25 -8
-27 -1 c-16 -1 -65 19 -110 43 -78 41 -170 79 -298 124 -30 10 -64 22 -75 26
-58 22 102 -69 177 -100 49 -21 86 -39 84 -41 -2 -3 -13 0 -24 6 -12 6 -28 11
-38 11 -9 0 -69 29 -133 64 -64 35 -162 83 -219 107 -56 24 -97 46 -92 49 15
9 -7 25 -44 34 -21 5 -26 10 -17 16 8 4 10 13 7 19 -4 6 -2 11 3 11 6 0 11 7
11 15 0 13 -3 13 -20 3 -29 -19 -28 -80 3 -101 18 -12 20 -18 10 -28 -16 -16
-17 -29 -3 -29 23 0 294 -121 343 -153 29 -19 85 -54 125 -77 88 -53 95 -70
10 -25 -35 18 -99 43 -143 54 -44 12 -137 44 -206 71 -70 28 -130 50 -133 50
-3 0 -6 -6 -6 -14 0 -7 30 -25 68 -39 158 -60 231 -86 302 -107 71 -22 210
-84 210 -95 0 -3 -26 8 -58 24 -31 16 -98 41 -147 56 -134 40 -162 50 -259 90
-48 20 -92 35 -97 33 -14 -5 148 -68 309 -122 117 -39 242 -98 242 -113 0 -3
-19 6 -42 20 -24 14 -104 44 -178 67 -74 24 -175 58 -224 77 -48 19 -90 32
-92 30 -6 -5 161 -70 314 -121 115 -39 202 -78 202 -92 0 -2 -17 5 -37 16 -21
10 -101 39 -178 64 -77 24 -179 60 -227 79 -49 20 -88 33 -88 29 1 -18 21 -30
100 -61 69 -28 389 -141 397 -141 2 0 27 -22 58 -50 30 -27 74 -59 97 -71 24
-12 57 -31 73 -43 62 -46 75 -40 75 34 0 21 4 50 10 64 9 23 7 26 -15 26 -13
0 -36 5 -52 11 -21 8 -24 12 -13 19 8 5 18 6 22 4 4 -3 8 0 8 6 0 6 5 8 10 5
5 -3 10 -2 10 3 0 5 10 13 22 19 19 8 21 16 19 74 -1 35 -8 67 -14 71 -8 5 -8
10 0 20 6 7 11 24 11 38 0 14 16 81 36 149 29 98 38 147 43 240 3 64 10 126
14 139 18 47 36 37 157 -79 131 -126 227 -198 377 -285 109 -62 170 -108 180
-132 7 -18 -40 -120 -100 -217 -25 -39 -45 -80 -45 -91 0 -20 34 -56 63 -67 9
-3 17 -10 17 -14 0 -14 -73 -67 -90 -66 -9 1 -64 -47 -121 -105 l-104 -107
107 104 c59 58 110 103 113 100 7 -8 -383 -389 -398 -389 -7 0 -21 13 -31 29
-16 24 -25 28 -58 26 -40 -2 -74 20 -157 101 -12 13 -32 26 -42 29 -23 8 -23
14 -4 85 14 53 20 100 8 73 -7 -18 -23 -16 -62 8 -27 17 -31 23 -20 31 10 7 9
8 -7 3 -21 -5 -40 16 -35 38 1 5 -3 6 -8 3 -5 -3 -38 14 -74 38 -36 24 -105
57 -153 74 -245 85 -323 119 -376 167 -34 30 -54 42 -57 34 -2 -7 5 -19 15
-26 10 -6 28 -19 39 -28 19 -16 19 -16 -3 -5 -36 18 -38 4 -3 -15 18 -9 37
-13 43 -9 6 4 8 3 4 -4 -3 -6 -1 -14 5 -18 8 -4 9 -3 5 4 -4 7 -3 12 2 12 11
0 38 -31 34 -39 -1 -3 6 -6 17 -7 10 -1 84 -27 165 -58 80 -31 150 -56 155
-56 5 0 12 -4 16 -9 8 -14 -31 -1 -170 54 -66 26 -135 49 -153 50 -37 4 -37 3
-3 -15 19 -10 22 -10 16 1 -6 8 -4 10 6 6 62 -28 315 -127 324 -127 7 0 18 -7
25 -15 15 -18 -66 10 -229 77 -53 21 -103 42 -111 45 -10 4 -12 3 -5 -4 10
-10 250 -115 293 -128 13 -4 21 -9 18 -12 -11 -11 -244 82 -298 119 -38 26
-159 80 -165 74 -14 -14 11 -36 69 -59 34 -14 124 -54 198 -90 74 -35 156 -72
183 -82 41 -15 47 -21 47 -46 0 -16 -4 -29 -8 -29 -12 0 -203 72 -339 127
-109 45 -120 48 -111 29 7 -17 56 -41 194 -96 101 -40 184 -75 184 -77 0 -8
-58 13 -206 72 -85 35 -154 59 -152 54 2 -5 77 -39 168 -75 184 -73 230 -93
230 -99 0 -8 -150 45 -254 89 -60 26 -111 44 -114 41 -8 -8 -6 -9 163 -75 88
-34 171 -66 184 -71 13 -6 22 -12 19 -14 -8 -8 -106 24 -230 76 -89 36 -118
44 -118 33 0 -18 122 -75 252 -117 94 -31 96 -33 102 -66 3 -19 3 -38 0 -42
-6 -10 -83 13 -173 51 -81 35 -82 35 -74 15 6 -17 98 -62 184 -90 30 -10 59
-22 64 -27 17 -16 -45 2 -130 39 -44 18 -73 27 -65 20 18 -16 163 -77 185 -77
8 0 15 -4 15 -10 0 -16 -31 -11 -80 11 -68 31 -96 42 -85 31 12 -12 149 -72
164 -72 6 0 11 -4 11 -10 0 -11 -88 14 -103 29 -17 17 -31 13 -16 -5 17 -20
111 -64 138 -64 11 0 23 -5 26 -10 5 -8 11 -8 20 0 9 8 15 8 20 0 3 -5 0 -10
-8 -10 -8 0 -17 -11 -20 -25 -6 -33 30 -57 48 -32 9 13 24 15 76 10 62 -5 106
-19 96 -30 -8 -7 -71 -6 -94 1 -14 4 -20 2 -20 -9 0 -8 7 -17 16 -20 21 -6
138 2 152 11 7 4 10 1 7 -7 -2 -7 1 -25 8 -38 15 -29 3 -51 -27 -51 -23 0 -24
-10 -3 -36 14 -18 15 -18 8 6 -7 29 -2 26 16 -9 8 -15 8 -21 1 -17 -6 4 -11 3
-11 -1 0 -4 -29 -19 -65 -31 -36 -13 -65 -28 -65 -33 0 -4 -7 -6 -15 -2 -15 5
-12 17 3 18 20 2 52 18 52 26 0 6 -7 6 -19 -1 -24 -12 -31 -13 -31 -1 0 5 9
13 20 16 11 4 21 16 21 28 1 16 2 18 6 5 4 -14 8 -15 29 -6 24 11 34 38 14 38
-5 0 -10 -6 -10 -12 0 -8 -3 -9 -8 -3 -12 16 -82 17 -98 0 -30 -30 -185 -57
-199 -35 -6 10 -4 12 8 7 9 -3 19 -2 22 2 2 5 -6 11 -20 13 -13 3 -26 1 -27
-4 -2 -4 -9 1 -16 12 -11 18 -11 21 5 18 10 -2 18 3 18 11 0 8 10 15 23 16 12
1 22 -3 22 -8 0 -6 3 -7 7 -4 3 4 13 1 21 -6 12 -9 16 -9 19 1 3 6 11 12 19
12 23 0 16 20 -8 22 -43 2 -47 3 -55 12 -5 5 -2 6 7 1 12 -7 13 -6 2 6 -10 11
-15 11 -20 2 -5 -7 -17 -11 -27 -9 -51 10 -75 19 -75 27 0 5 7 6 15 3 30 -12
14 6 -17 20 l-33 14 35 -1 c25 -2 36 -8 40 -22 5 -20 50 -33 50 -15 0 6 -9 10
-20 10 -11 0 -20 6 -20 14 0 8 -9 18 -20 21 -11 3 -20 12 -20 19 0 12 -59 52
-72 48 -5 -1 -8 6 -8 16 0 9 -4 13 -8 7 -11 -15 -92 -2 -92 14 0 14 -60 74
-67 67 -4 -4 -1 -12 7 -17 13 -9 13 -10 0 -6 -8 2 -14 12 -14 21 1 9 -2 16 -7
16 -5 0 -9 6 -9 14 0 8 -5 18 -12 22 -7 5 -8 3 -3 -6 6 -10 3 -12 -13 -8 -29
8 -29 -15 -1 -45 11 -12 25 -29 29 -38 8 -15 6 -15 -24 -1 -23 10 -33 20 -29
31 3 11 0 10 -7 -3 -8 -11 -9 -21 -3 -25 6 -3 13 -18 17 -33 4 -16 13 -28 22
-28 13 0 14 3 5 14 -10 12 -8 13 8 9 15 -4 21 -14 22 -37 2 -30 2 -30 6 -3 2
15 7 27 9 27 14 0 63 -59 52 -62 -7 -3 -6 -7 5 -11 12 -5 17 -1 17 12 0 16 5
18 34 11 19 -4 47 -19 62 -34 16 -14 32 -26 35 -26 4 0 9 -7 13 -15 4 -12 -1
-14 -27 -10 -17 4 -35 11 -39 18 -4 7 -8 9 -8 5 0 -4 -13 6 -30 24 -22 22 -30
26 -30 14 0 -9 5 -16 10 -16 6 0 10 -4 10 -9 0 -17 -62 11 -67 30 -3 10 -12
20 -20 24 -12 4 -13 2 -6 -7 6 -7 13 -25 17 -40 5 -21 16 -30 58 -43 47 -15
118 -71 118 -93 0 -4 9 -13 20 -20 11 -7 20 -18 20 -25 0 -8 -3 -9 -8 -1 -9
14 -52 37 -58 31 -7 -6 15 -27 59 -57 61 -42 57 -54 -14 -47 -34 3 -66 11 -73
17 -8 9 -3 11 22 5 29 -6 32 -4 32 17 -1 20 -2 21 -13 8 -26 -32 -67 -11 -125
64 -30 40 -28 18 3 -24 14 -19 25 -36 25 -38 0 -10 -70 20 -153 67 -38 21 -38
21 -32 1 3 -11 3 -20 -2 -20 -13 0 -158 73 -161 82 -2 4 -8 8 -14 8 -14 0 -70
41 -64 47 2 2 14 -1 26 -7 12 -6 24 -9 27 -7 3 3 -9 13 -27 22 -18 9 -30 19
-27 22 3 2 15 0 26 -6 18 -10 20 -9 14 6 -5 11 20 2 81 -31 78 -43 87 -46 81
-26 -6 19 -4 21 17 15 12 -4 46 -20 74 -36 54 -30 76 -37 56 -17 -7 7 -12 20
-12 29 0 10 -5 21 -12 25 -7 4 -8 3 -4 -4 11 -19 -19 -14 -45 6 -13 11 -37 24
-54 29 -16 6 -39 14 -50 19 -20 7 -20 7 -1 -14 29 -33 2 -28 -58 11 -28 17
-63 32 -78 32 -16 0 -28 3 -28 8 0 4 0 14 0 22 0 13 4 14 21 5 34 -19 29 -7
-7 17 -30 20 -34 20 -34 5 0 -14 -2 -14 -9 -3 -6 9 -5 23 1 37 l11 24 71 -39
c39 -21 85 -41 101 -45 l30 -6 -28 16 c-16 8 -27 18 -24 21 3 2 15 0 26 -7 30
-15 29 14 -1 34 -32 23 -51 21 -43 -4 5 -17 -2 -15 -54 16 -34 20 -61 40 -61
43 0 4 -10 7 -22 7 -16 -1 -25 -9 -29 -26 -3 -14 -6 13 -6 59 0 73 2 82 14 66
7 -11 13 -15 13 -9 0 5 5 1 11 -8 5 -10 17 -18 26 -18 10 0 30 -12 46 -27 25
-24 28 -25 18 -6 -21 42 -10 44 44 8 20 -15 39 -24 41 -22 5 5 -58 61 -101 90
-14 11 -24 21 -21 24 3 3 12 0 21 -7 12 -10 15 -10 15 0 0 10 3 10 15 0 8 -6
13 -17 12 -23 -3 -14 42 -37 72 -37 20 0 22 -4 17 -24 -5 -20 -2 -24 13 -23
13 1 17 6 13 17 -5 13 -4 13 13 0 17 -14 18 -13 13 5 -3 11 -9 28 -13 38 -5
11 -3 17 7 17 8 0 24 -8 36 -17 11 -10 29 -26 40 -35 11 -9 23 -14 26 -11 3 4
6 0 6 -8 0 -8 9 -15 20 -16 25 -2 26 18 1 39 -14 12 -21 13 -25 5 -3 -9 -5 -8
-5 1 -1 7 -4 11 -8 9 -5 -3 -14 2 -22 10 -12 13 -11 14 8 8 24 -7 30 12 6 21
-8 4 -13 9 -10 13 7 13 -26 52 -38 45 -7 -4 -9 -3 -4 1 7 9 -30 55 -45 55 -5
0 -6 -11 -4 -24 2 -13 2 -27 -1 -29 -10 -10 -53 37 -53 59 0 34 -12 84 -20 84
-4 0 -10 -11 -12 -24 -3 -17 -1 -23 8 -19 9 3 11 -2 7 -16 -8 -30 -20 -35 -28
-10 -5 16 -9 18 -15 8 -7 -10 -11 -10 -24 0 -18 15 -22 41 -6 41 5 0 7 6 5 13
-3 6 6 17 20 24 28 13 30 10 14 -19 -11 -20 -11 -20 15 -2 29 22 32 32 12 40
-9 3 -12 12 -9 21 4 11 2 14 -5 9 -6 -3 -20 3 -30 15 -12 12 -22 16 -26 10
-11 -16 -36 -1 -37 23 0 20 -1 20 -9 1 -7 -17 -9 -16 -10 10 0 26 -2 28 -11
12 -6 -10 -8 -25 -5 -32 3 -8 2 -17 -3 -19 -11 -7 -14 -106 -3 -106 17 0 21
12 12 36 -6 14 -6 26 0 29 9 6 14 -8 11 -27 0 -5 5 -8 13 -8 10 0 12 7 8 23
-5 21 -5 21 12 5 14 -14 16 -27 11 -62 -4 -25 -13 -47 -21 -50 -8 -3 -11 0 -7
10 3 7 0 14 -6 14 -6 0 -11 -4 -11 -8 0 -5 -7 -9 -15 -9 -8 0 -15 4 -15 8 0 4
-6 9 -13 12 -8 3 -12 -6 -11 -30 2 -39 14 -59 14 -23 0 19 2 20 15 10 12 -10
15 -10 15 1 0 12 2 12 9 0 5 -7 13 -11 18 -8 18 11 6 -56 -12 -70 -16 -11 -16
-13 -3 -13 9 0 19 -7 22 -16 9 -25 7 -26 -15 -10 -12 8 -27 12 -33 10 -7 -3
-13 8 -14 28 -3 41 -12 50 -12 12 0 -22 -3 -25 -10 -14 -15 24 -23 4 -21 -54
2 -57 -11 -79 -28 -49 -8 14 -10 8 -11 -28 0 -35 4 -49 17 -53 13 -5 14 -9 5
-15 -9 -5 -6 -15 12 -35 16 -19 22 -35 17 -50 -5 -19 -6 -19 -9 6 -2 14 -10
29 -18 32 -11 4 -14 1 -10 -12 4 -10 -1 -27 -9 -38 -18 -24 -19 -35 -2 -31 6
1 11 -4 10 -10 -5 -21 19 -14 24 7 3 11 9 20 14 20 9 0 29 -64 29 -93 0 -17
-1 -17 -30 0 -17 9 -30 24 -31 33 0 11 -2 11 -6 2 -3 -7 -16 -17 -29 -22 -22
-9 -24 -14 -19 -52 l5 -43 -11 45 c-8 32 -8 45 0 48 6 2 8 9 4 15 -9 16 -14
99 -5 93 6 -3 7 26 3 67 -2 14 -16 7 -26 -12 -6 -11 -22 -41 -36 -68 -15 -26
-34 -61 -43 -78 -9 -16 -16 -37 -16 -45 0 -11 -2 -12 -8 -2 -6 9 -20 2 -50
-27 -25 -24 -56 -43 -77 -47 -36 -6 -50 -34 -17 -34 14 0 15 2 2 10 -13 8 -12
10 4 10 14 0 17 -5 12 -22 -3 -13 -9 -40 -12 -61 -4 -20 -11 -40 -15 -43 -5
-3 -9 -32 -9 -65 0 -55 -1 -59 -16 -45 -8 9 -19 16 -23 16 -5 0 -11 21 -14 48
-3 26 -9 58 -13 71 -5 17 -4 22 4 17 7 -4 12 -17 13 -29 0 -21 1 -21 10 2 7
19 7 56 0 101 -1 3 -6 -2 -11 -10 -8 -11 -9 -7 -4 14 7 28 6 28 -27 21 -48
-10 -91 -34 -83 -46 4 -6 10 -6 19 1 17 14 35 5 35 -19 0 -9 4 -21 9 -26 6 -6
1 -11 -15 -11 -18 -2 -24 3 -24 19 0 11 -3 18 -6 14 -3 -3 -3 -21 2 -39 4 -18
9 -27 11 -20 3 6 11 12 18 12 8 0 16 -22 21 -62 11 -81 11 -78 -1 -80 -5 -1
-13 11 -17 28 -7 28 -7 28 -4 -4 2 -28 -3 -38 -31 -59 -18 -14 -31 -28 -29
-32 3 -4 -4 -18 -14 -31 l-19 -25 -10 28 c-6 16 -9 32 -6 37 3 5 0 12 -6 16
-7 4 -9 3 -5 -4 10 -16 -11 -24 -33 -13 -11 6 -37 14 -58 17 -21 3 -42 10 -47
15 -6 5 -34 9 -64 9 -44 0 -64 6 -102 31 -44 29 -48 34 -45 67 2 19 10 39 17
43 10 6 7 12 -10 25 -14 10 -21 22 -17 31 3 9 0 22 -6 29 -6 8 -9 21 -5 29 3
9 -3 24 -13 34 -38 38 -6 146 40 134 14 -4 19 0 19 16 0 16 -5 21 -17 19 -29
-4 -46 11 -32 28 9 11 9 14 0 14 -7 0 -11 7 -9 16 5 30 -18 25 -54 -11 -35
-33 -36 -37 -26 -71 7 -26 6 -55 -3 -101 -11 -54 -18 -67 -40 -79 -16 -8 -35
-14 -44 -14 -8 0 -15 -4 -15 -10 0 -17 -52 -11 -65 7 -9 12 -28 17 -70 18 -48
0 -60 4 -66 20 -14 35 -10 98 7 116 26 28 11 49 -35 49 -22 0 -61 10 -86 22
-51 25 -65 54 -47 100 8 22 6 38 -9 79 -11 28 -27 83 -35 123 -14 64 -14 82 1
186 22 150 29 170 90 265 28 44 75 130 104 190 52 110 52 110 61 245 5 74 14
171 20 215 20 137 2 248 -50 306 -16 19 -41 61 -56 95 -21 50 -39 72 -100 123
-80 67 -100 99 -148 246 -35 102 -38 141 -20 215 18 74 38 386 38 595 0 109
-4 150 -17 185 -10 25 -22 95 -27 155 -5 61 -18 166 -30 235 -11 69 -20 128
-20 133 0 4 -133 7 -295 7 -229 0 -295 -3 -295 -12z m577 -2243 c7 -20 -15
-90 -39 -120 -23 -30 -23 -66 2 -115 27 -53 26 -96 -2 -112 -51 -28 -87 0
-113 88 -16 55 -16 56 9 99 17 28 26 59 26 86 0 29 6 50 20 64 25 26 88 33 97
10z m1871 -1557 c23 -18 42 -36 42 -41 0 -4 -4 -5 -10 -2 -5 3 -10 1 -10 -5 0
-7 8 -9 20 -5 23 7 114 -30 106 -44 -4 -5 -1 -13 5 -17 8 -4 9 -3 5 4 -10 17
6 15 32 -4 14 -10 22 -11 22 -3 0 6 7 9 18 5 11 -4 8 1 -8 15 -30 25 -29 24
93 -34 54 -26 96 -51 93 -55 -3 -5 4 -13 15 -20 10 -7 19 -8 19 -3 0 6 -4 13
-10 16 -5 3 -10 11 -10 16 0 6 10 3 22 -5 12 -9 35 -16 50 -16 37 0 137 -49
164 -80 12 -14 22 -26 21 -26 -3 -3 -131 22 -157 31 -13 4 -36 16 -50 26 -14
10 -38 21 -55 24 -27 5 -27 4 7 -10 20 -9 39 -23 42 -31 4 -11 1 -12 -12 -5
-9 5 -44 18 -76 30 -33 11 -77 33 -98 47 -21 15 -41 24 -45 20 -11 -11 12 -41
33 -44 10 -2 28 -12 39 -22 11 -10 56 -30 100 -44 88 -30 108 -43 151 -100 24
-33 26 -38 9 -33 -11 4 -58 18 -104 32 -46 14 -91 31 -100 39 -9 7 -27 17 -41
21 -24 8 -24 8 -7 -19 13 -19 14 -26 4 -26 -12 0 -57 27 -67 41 -5 7 -96 50
-144 69 -20 7 -26 6 -26 -4 0 -18 -60 11 -105 50 l-30 26 35 -17 c19 -9 47
-23 62 -31 25 -13 27 -13 22 0 -3 9 -9 14 -13 12 -3 -2 -22 7 -41 20 -37 26
-31 32 10 9 64 -36 43 5 -25 50 -44 30 -52 39 -50 64 1 17 -2 28 -7 25 -4 -3
-8 -1 -8 5 0 18 16 20 44 5 35 -17 36 -17 36 1 0 9 -16 25 -35 36 -19 12 -35
25 -35 30 0 16 15 10 58 -23z m795 -89 c-4 -12 -14 -24 -25 -26 -27 -8 -22
-18 20 -37 38 -17 38 -17 96 13 78 41 96 41 96 -3 0 -21 -6 -36 -16 -40 -8 -3
-13 -9 -11 -13 3 -5 -5 -9 -16 -9 -12 -1 -33 -5 -46 -9 -16 -6 -22 -5 -17 3 3
6 1 14 -6 18 -19 12 -98 22 -98 12 0 -5 -9 -4 -20 2 -12 6 -20 7 -20 1 0 -5
-13 -3 -30 5 -31 16 -55 11 -44 -9 3 -7 0 -5 -8 3 -7 8 -18 16 -23 17 -6 0
-17 3 -25 5 -9 1 -15 -1 -15 -7 0 -5 4 -9 8 -7 5 1 6 -2 2 -7 -11 -19 -35 0
-29 24 4 16 -1 28 -20 43 -32 25 -33 33 -3 28 12 -2 21 -10 19 -17 -3 -10 0
-10 12 1 15 12 21 7 17 -14 -1 -5 5 -4 13 4 14 11 16 9 16 -8 0 -12 5 -24 12
-28 7 -4 8 -3 4 4 -4 7 -2 20 3 29 9 16 10 16 11 -4 0 -12 4 -24 9 -27 5 -4 7
4 4 16 -6 19 -3 21 33 16 44 -6 78 3 80 21 2 19 4 21 13 21 5 0 7 -10 4 -21z
m-1363 -539 c-11 -63 -22 -128 -25 -145 -8 -52 -27 -139 -33 -155 -3 -8 -4
-21 -3 -27 1 -7 -2 -13 -7 -13 -12 0 -33 -106 -25 -127 5 -11 3 -14 -6 -8 -10
5 -11 2 -7 -13 4 -11 2 -23 -4 -27 -7 -5 -9 -22 -5 -47 5 -25 4 -38 -2 -35 -6
4 -8 -3 -6 -16 2 -12 -1 -42 -8 -67 -7 -25 -13 -76 -15 -113 -1 -37 -8 -74
-15 -83 -8 -10 -9 -18 -2 -25 13 -13 67 -17 68 -4 1 6 9 26 17 45 9 19 29 91
44 160 62 285 84 396 84 422 0 15 5 30 10 33 11 7 13 -55 11 -405 -3 -403 29
-879 70 -1050 43 -180 169 -623 223 -785 14 -39 15 -40 72 -47 61 -7 100 -2
122 15 9 7 12 1 14 -24 l1 -34 4 33 c4 27 8 33 26 30 19 -3 23 -15 39 -109 25
-151 36 -181 76 -199 18 -9 30 -19 27 -22 -4 -3 2 -5 12 -4 10 0 17 -4 16 -11
-2 -6 6 -15 17 -18 12 -4 22 -19 26 -42 4 -20 5 -184 2 -364 -4 -254 -3 -341
8 -386 13 -56 12 -91 -2 -39 -3 14 -10 26 -14 26 -11 0 -7 -19 8 -47 8 -15 9
-23 2 -23 -5 0 -10 6 -11 13 0 9 -2 9 -6 0 -7 -20 -25 -15 -20 5 3 9 8 35 11
57 l6 40 -15 -39 c-8 -22 -13 -41 -10 -44 9 -10 -16 -41 -29 -36 -8 3 -21 -5
-30 -18 -21 -32 -32 -88 -18 -88 6 0 9 6 6 14 -3 7 1 28 8 46 l14 34 22 -24
c12 -14 20 -30 17 -38 -4 -11 3 -12 35 -7 43 7 104 -8 134 -34 18 -15 18 -15
6 8 -11 21 -10 26 6 38 23 17 24 15 15 -27 -7 -36 -10 -37 -63 -24 -25 6 -28
4 -28 -19 0 -14 -7 -28 -16 -31 -28 -11 -37 -7 -23 11 12 15 10 15 -16 -1 -41
-26 -77 -69 -64 -77 6 -3 4 -11 -6 -19 -13 -11 -15 -10 -9 4 3 9 1 16 -4 16
-21 0 -50 -51 -56 -97 -11 -74 -14 -80 -54 -99 -37 -18 -37 -18 -12 -25 24 -8
16 -8 -115 4 -22 2 -51 7 -64 12 -16 5 -21 4 -17 -4 5 -7 -14 -9 -63 -5 -69 5
-70 5 -77 -20 -5 -21 -13 -26 -60 -32 -64 -8 -86 2 -25 12 84 13 35 31 -110
38 -82 5 -125 -7 -74 -20 16 -4 42 -7 57 -7 31 0 37 -11 12 -21 -27 -10 -142
-7 -149 5 -5 7 -29 8 -71 4 l-64 -7 2 26 c1 14 7 26 12 26 5 0 7 2 4 5 -6 6
-267 -40 -315 -56 -25 -8 -56 -7 -125 5 -54 9 -150 16 -232 16 -77 0 -167 5
-200 11 -58 11 -179 64 -228 100 l-22 17 34 118 c18 66 49 162 67 214 19 52
47 138 62 190 45 152 104 337 252 791 76 234 139 430 139 437 0 7 29 101 64
209 35 109 70 223 76 253 22 95 354 1085 440 1310 45 118 90 236 100 261 21
56 29 95 67 303 15 88 29 153 31 145 1 -8 -7 -66 -18 -129z m416 42 c34 -33
224 -166 239 -167 6 0 27 -9 48 -19 21 -10 40 -17 42 -14 3 2 -11 10 -30 18
-19 7 -37 20 -39 27 -4 10 5 9 32 -6 89 -46 350 -170 384 -180 21 -7 40 -17
44 -22 3 -5 23 -18 45 -29 21 -11 39 -27 39 -34 0 -8 7 -17 16 -20 9 -4 14 -9
11 -12 -7 -7 -92 30 -101 44 -3 6 -23 16 -44 22 -20 7 -90 39 -155 71 -64 32
-123 59 -129 59 -21 0 4 -15 72 -44 36 -16 85 -41 110 -56 25 -15 63 -33 85
-40 22 -7 69 -30 104 -51 35 -21 68 -40 75 -42 6 -2 8 -7 5 -10 -3 -4 -79 30
-170 76 -90 45 -217 104 -282 130 -109 45 -142 69 -158 112 -2 5 -11 10 -20
10 -9 1 -51 26 -95 57 -109 76 -124 84 -124 61 1 -17 54 -56 201 -149 26 -17
57 -42 68 -55 11 -15 51 -37 93 -53 95 -37 431 -196 495 -236 26 -16 73 -83
73 -104 0 -8 -30 5 -152 63 -59 28 -110 51 -114 51 -3 0 -20 11 -37 24 -31 23
-79 44 -232 101 -38 14 -81 37 -95 49 -14 13 -49 36 -78 51 -29 15 -58 35 -65
44 -6 9 -45 36 -84 59 -71 42 -77 50 -74 98 2 15 -9 28 -34 42 -42 26 -49 41
-41 87 8 40 20 38 72 -13z m-25 -119 c13 -17 13 -17 -13 0 -39 24 -35 12 7
-24 19 -17 32 -35 29 -40 -3 -5 -15 0 -26 11 -12 11 -27 20 -32 20 -19 -1 46
-48 132 -96 51 -29 81 -52 78 -60 -6 -16 27 -46 45 -39 16 5 117 -47 109 -56
-3 -4 4 -16 14 -28 11 -12 16 -21 12 -21 -16 0 -114 55 -138 78 -15 14 -31 23
-35 19 -12 -12 27 -44 94 -77 37 -18 82 -43 101 -56 19 -13 60 -31 91 -40 31
-9 75 -25 99 -35 23 -10 48 -19 55 -19 20 0 -94 50 -163 72 -58 18 -106 45
-97 55 2 2 25 -6 51 -18 26 -11 52 -19 59 -16 6 2 -12 12 -41 22 -29 11 -58
25 -64 32 -6 8 8 5 38 -6 27 -11 92 -37 144 -57 103 -40 120 -50 117 -67 -1
-6 7 -12 18 -13 11 -1 68 -24 127 -52 58 -27 122 -55 142 -62 20 -6 36 -15 36
-20 0 -11 -75 18 -197 78 -56 27 -100 45 -97 40 7 -11 139 -76 229 -113 71
-29 99 -45 92 -52 -13 -13 -253 98 -321 148 -22 16 -44 29 -49 29 -5 0 18 -20
51 -45 36 -27 118 -70 199 -105 149 -64 196 -99 61 -46 -109 43 -200 89 -240
121 -32 25 -216 105 -243 105 -22 0 -228 111 -260 140 -30 27 -185 115 -185
104 0 -22 29 -47 92 -79 40 -21 87 -50 103 -65 29 -26 232 -130 285 -145 60
-18 196 -77 215 -94 34 -31 97 -67 170 -96 165 -65 172 -70 200 -125 l26 -52
-23 7 c-100 32 -274 113 -312 146 -23 21 -65 47 -92 57 -303 121 -363 147
-429 192 -22 15 -84 50 -138 78 -54 28 -112 61 -128 73 -17 12 -32 19 -35 17
-2 -3 14 -18 36 -33 23 -16 44 -34 48 -40 4 -7 48 -33 97 -60 98 -52 127 -73
120 -86 -12 -18 66 -56 328 -160 26 -10 47 -16 47 -13 0 3 -17 12 -37 20 -150
59 -282 119 -303 135 -14 11 12 2 60 -19 47 -21 153 -65 235 -97 150 -58 180
-73 170 -83 -3 -3 5 -17 17 -31 13 -14 16 -20 8 -14 -8 6 -60 28 -115 48 -94
35 -260 102 -315 128 -14 6 -50 28 -81 48 -30 21 -71 44 -90 53 -106 48 -238
134 -239 155 0 9 11 5 33 -11 75 -57 267 -161 267 -146 0 3 -38 24 -84 47 -46
24 -110 63 -142 87 -32 24 -62 44 -66 44 -3 0 -6 14 -6 30 1 17 2 30 3 30 1 0
19 -13 40 -30 44 -35 55 -37 48 -10 -3 11 -25 32 -49 47 -43 27 -44 29 -44 82
0 41 3 51 13 44 27 -21 126 -83 131 -83 18 0 1 19 -29 33 -19 9 -35 23 -35 30
0 8 -17 26 -39 41 -35 25 -38 31 -40 77 -1 45 1 49 17 40 10 -6 25 -18 33 -28z
m996 -272 c83 -27 159 -54 169 -61 23 -14 27 -15 -154 44 -79 26 -148 46 -153
44 -5 -2 61 -27 148 -56 87 -29 174 -62 193 -73 19 -11 26 -17 15 -13 -11 4
-40 13 -65 20 -25 7 -58 17 -75 23 -100 35 -157 52 -161 48 -2 -2 44 -21 103
-41 134 -47 235 -87 230 -93 -3 -2 -20 3 -38 11 -38 16 -223 76 -312 101 -32
9 -55 20 -52 24 3 5 15 7 28 4 18 -4 19 -3 7 6 -8 6 -23 11 -32 11 -22 0 -34
20 -18 30 10 6 8 9 -6 13 -18 4 -18 5 1 6 11 0 89 -21 172 -48z m-1011 -132
c10 -12 31 -27 46 -35 15 -8 29 -23 33 -34 4 -12 47 -41 113 -76 59 -31 127
-69 152 -83 25 -15 140 -64 255 -110 163 -64 219 -91 250 -119 45 -42 84 -63
230 -123 155 -64 160 -67 185 -112 28 -51 36 -57 75 -57 29 0 72 -22 87 -44 4
-6 8 1 8 16 0 26 0 26 31 11 23 -11 34 -12 42 -4 17 17 47 13 47 -5 0 -9 9
-57 21 -106 14 -60 26 -91 37 -96 27 -10 79 -47 111 -80 29 -29 31 -35 31
-106 0 -44 4 -76 10 -76 6 0 10 -12 10 -26 0 -20 3 -24 13 -16 11 9 55 7 65
-3 10 -10 -33 -39 -55 -37 -13 2 -31 -2 -39 -9 -8 -6 -18 -8 -22 -4 -4 4 -1
10 6 12 7 3 12 22 12 44 0 35 -2 39 -26 39 -14 0 -35 5 -47 12 -38 20 -176
166 -198 210 -20 38 -23 41 -30 23 -6 -13 -7 0 -5 36 7 82 0 96 -50 115 -24 9
-44 21 -44 26 0 5 -5 6 -11 3 -6 -4 -13 2 -16 14 -5 22 -110 77 -272 145 -46
19 -91 42 -100 50 -52 46 -143 93 -313 162 -272 109 -492 217 -520 255 -12 16
-55 50 -95 75 -75 47 -81 57 -67 112 8 27 16 28 40 1z m189 -85 c50 -26 104
-58 120 -70 17 -12 53 -31 80 -42 149 -61 362 -144 372 -146 7 -1 21 -10 32
-20 11 -10 24 -15 30 -12 5 4 12 2 16 -4 3 -5 12 -10 18 -10 7 1 1 10 -12 20
-29 25 -22 25 26 1 21 -11 90 -40 153 -66 63 -26 122 -53 130 -61 13 -13 12
-14 -13 -5 -15 6 -46 19 -70 30 -114 51 -191 81 -201 77 -6 -2 -2 -7 9 -11 58
-21 301 -128 310 -136 15 -15 -10 -11 -61 11 -26 11 -52 19 -57 17 -6 -2 19
-16 56 -32 37 -15 72 -35 79 -43 10 -11 4 -10 -27 3 -22 9 -56 23 -75 30 -120
44 -229 100 -265 134 -31 30 -70 51 -170 89 -192 74 -307 123 -335 142 -14 10
-71 41 -127 70 -56 29 -111 61 -122 72 -26 23 -29 48 -3 26 9 -9 58 -37 107
-64z m-117 -93 c50 -30 68 -47 37 -35 -8 4 -15 2 -15 -2 0 -10 39 -32 190
-105 174 -84 202 -96 285 -129 182 -72 226 -90 266 -110 22 -12 39 -24 36 -26
-3 -3 -24 4 -47 16 -23 12 -43 20 -45 18 -2 -2 20 -16 48 -31 52 -28 115 -73
87 -64 -8 3 -82 36 -165 72 -82 37 -167 74 -189 82 -21 7 -57 23 -79 33 -47
23 -47 23 -47 11 0 -4 37 -23 83 -40 100 -40 198 -82 294 -127 40 -19 75 -34
79 -34 4 0 13 -8 21 -17 9 -11 16 -14 19 -7 3 7 30 -2 72 -22 37 -19 106 -51
153 -73 91 -42 193 -103 205 -123 5 -7 -8 -2 -27 10 -33 23 -166 88 -297 148
-35 15 -68 34 -74 41 -6 7 -15 13 -20 13 -19 0 13 -29 59 -55 25 -14 51 -25
57 -25 31 0 306 -155 322 -182 3 -5 -11 2 -32 16 -53 35 -183 101 -275 140
-41 18 -98 50 -125 72 -34 26 -124 71 -270 133 -413 176 -467 201 -514 243
-25 23 -81 61 -125 87 -52 30 -81 53 -83 66 -2 18 -1 18 10 4 7 -9 47 -35 88
-58 41 -23 88 -55 104 -69 l30 -27 -25 32 c-21 27 -88 75 -104 73 -3 0 -13 8
-23 18 -11 9 -33 25 -50 34 -24 13 -31 23 -30 42 l2 25 31 -19 c16 -10 54 -32
83 -49z m-15 -123 c50 -28 112 -69 137 -89 44 -37 90 -59 330 -159 260 -108
376 -163 419 -199 25 -20 71 -48 101 -60 89 -38 253 -123 276 -143 14 -13 20
-27 16 -40 -4 -17 -1 -19 16 -14 23 8 62 -12 62 -31 0 -7 7 -13 15 -13 13 0
13 -3 3 -21 -11 -18 -11 -23 1 -27 11 -4 11 -6 0 -14 -12 -8 -12 -10 0 -15 11
-5 11 -7 0 -14 -11 -7 -10 -9 4 -9 10 0 16 -4 12 -10 -3 -5 -13 -6 -21 -3 -14
5 -14 3 -3 -16 8 -11 17 -21 22 -21 4 0 5 5 2 10 -3 6 -2 10 4 10 15 0 32 -36
25 -54 -8 -22 -21 -20 -29 4 -4 11 -10 18 -15 15 -12 -7 -23 35 -20 83 1 23
-3 42 -8 42 -6 0 -8 10 -4 22 4 16 2 19 -8 13 -10 -6 -12 -4 -7 8 4 11 -1 20
-13 27 -16 9 -20 8 -20 -5 0 -8 -2 -15 -4 -15 -12 0 -136 57 -169 77 -21 13
-50 28 -64 34 -15 5 -65 34 -112 64 -73 46 -347 171 -651 298 -41 17 -97 47
-125 68 -27 20 -96 62 -152 93 -74 41 -104 63 -107 79 -9 44 -13 77 -9 77 2 0
45 -23 96 -52z m2257 31 c13 -24 1 -44 -33 -55 -12 -3 -36 -19 -52 -35 -35
-33 -89 -48 -97 -27 -10 24 4 79 21 85 9 3 23 7 31 11 8 3 21 4 28 3 6 -1 12
3 12 9 0 12 35 28 62 29 10 1 22 -8 28 -20z m-2117 -241 c26 -17 45 -33 42
-36 -10 -10 28 -43 74 -63 89 -40 235 -99 246 -99 14 1 -57 36 -103 51 -46 15
-193 86 -206 99 -16 16 0 12 36 -9 18 -11 98 -47 178 -79 258 -107 517 -229
565 -266 11 -9 -27 9 -85 39 -58 30 -113 55 -124 55 -10 0 26 -23 80 -51 136
-70 243 -132 244 -142 0 -5 -19 4 -42 18 -71 43 -260 136 -270 133 -5 -2 51
-34 124 -72 73 -38 166 -88 205 -112 40 -24 77 -44 82 -44 5 0 16 -6 23 -14 8
-7 29 -21 48 -31 37 -19 65 -43 58 -51 -3 -2 -22 8 -44 24 -71 51 -354 197
-544 282 -41 18 -127 56 -190 85 -63 29 -147 64 -187 79 -39 15 -125 59 -190
98 -65 38 -139 81 -165 94 -41 21 -68 48 -68 68 0 4 25 -8 55 -25 30 -17 55
-29 55 -26 0 3 -25 19 -55 36 -43 24 -55 36 -55 55 0 24 1 24 83 -21 45 -25
104 -59 130 -75z m2082 -76 c10 -7 16 -65 16 -164 0 -62 11 -74 53 -58 31 12
37 22 45 82 8 65 26 78 74 54 44 -20 47 -24 51 -73 2 -21 8 -48 14 -60 18 -33
15 -41 -18 -48 -35 -8 -60 -30 -60 -52 0 -13 7 -14 43 -8 67 12 111 8 122 -11
6 -9 22 -30 37 -45 16 -17 25 -35 22 -44 -10 -24 23 -65 52 -65 22 0 24 -3 18
-22 -8 -27 -22 -38 -49 -38 -27 0 -35 7 -79 68 -21 28 -44 52 -51 52 -7 0 -25
-14 -39 -31 -14 -17 -30 -27 -36 -24 -6 4 -19 -4 -30 -17 -11 -13 -20 -18 -21
-10 -1 6 -3 17 -4 22 -1 6 -3 16 -4 24 -2 24 -43 31 -58 10 -17 -23 -18 -165
-1 -182 9 -9 9 -12 0 -12 -7 0 -12 -7 -12 -15 0 -19 29 -20 36 -1 6 14 50 10
72 -7 9 -7 20 -3 40 16 41 40 57 35 72 -20 7 -27 21 -61 32 -76 22 -32 13 -52
-29 -68 -32 -12 -51 -2 -58 29 -3 15 -19 42 -34 60 -25 29 -34 33 -67 30 -36
-3 -39 -6 -46 -42 -5 -22 -13 -45 -19 -53 -7 -7 -9 -26 -6 -42 4 -20 0 -34
-13 -49 -16 -17 -18 -26 -10 -47 14 -36 13 -68 -2 -88 -11 -15 -18 -15 -51 -5
-27 8 -40 9 -49 0 -16 -16 -1 -59 22 -65 11 -3 20 -13 20 -22 0 -10 9 -33 21
-51 16 -26 19 -43 14 -76 -8 -58 5 -77 39 -58 14 7 26 22 26 32 0 10 7 18 16
18 14 0 16 -8 11 -41 -6 -49 -35 -79 -76 -79 -25 0 -32 -5 -37 -26 -5 -21 -11
-25 -31 -21 -22 4 -24 2 -20 -19 5 -26 6 -25 -77 -28 -35 -1 -39 -4 -55 -43
-9 -23 -28 -55 -42 -70 -22 -23 -25 -35 -21 -71 7 -73 -19 -127 -34 -68 -3 14
-11 23 -18 20 -7 -3 -13 1 -14 8 -1 16 -24 78 -35 96 -13 19 -37 14 -37 -9 0
-11 18 -57 40 -101 35 -70 41 -89 39 -140 -2 -40 2 -63 13 -75 21 -25 35 -76
43 -153 3 -36 8 -82 11 -102 5 -34 3 -38 -27 -54 -24 -12 -37 -14 -50 -6 -12
8 -26 6 -53 -9 -31 -16 -56 -19 -173 -19 -76 0 -166 5 -201 10 -58 10 -68 9
-109 -12 -26 -13 -81 -55 -122 -94 -42 -39 -105 -90 -141 -113 -56 -36 -66
-40 -76 -27 -20 28 -114 441 -114 503 0 22 0 22 53 6 28 -8 57 -19 64 -25 8
-6 23 2 47 27 20 20 36 40 36 44 0 5 7 12 15 15 29 11 46 71 35 118 -15 66
-12 132 9 216 11 43 23 102 27 132 3 30 17 93 31 140 59 200 82 329 88 495 3
88 6 172 8 187 5 43 17 46 17 4 0 -35 12 -73 45 -136 7 -14 15 -37 19 -52 4
-17 21 -38 44 -52 65 -42 216 -209 243 -270 7 -14 15 -26 19 -26 11 0 44 40
34 40 -5 0 -1 5 9 11 15 9 22 7 33 -8 7 -10 22 -29 32 -42 l19 -25 27 26 c24
22 27 30 21 61 -4 21 -12 37 -17 37 -6 0 -7 7 -4 16 4 9 2 22 -3 28 -15 18 -1
56 20 56 11 0 19 3 19 8 0 4 3 17 6 30 5 17 2 22 -13 22 -11 0 -27 8 -36 18
-16 17 -15 20 12 46 26 25 28 30 19 74 -10 55 -3 92 17 92 8 0 15 7 15 15 0 9
7 18 15 22 25 9 52 73 59 139 8 71 1 100 -20 83 -7 -6 -18 -8 -24 -4 -5 3 -10
-1 -10 -9 0 -11 -10 -14 -45 -11 -44 4 -69 -8 -40 -19 21 -8 19 -26 -2 -27
-11 0 -13 -3 -5 -6 7 -3 12 -25 12 -59 0 -31 -4 -53 -9 -50 -5 3 -14 -1 -21
-9 -16 -19 -33 -9 -25 15 8 25 -23 132 -42 147 -8 6 -13 18 -11 25 3 7 -2 19
-9 27 -8 7 -12 18 -10 24 6 18 24 19 41 2 15 -15 17 -15 22 0 9 21 1 27 -40
30 -29 3 -35 0 -38 -18 -2 -17 -11 -23 -35 -25 -29 -3 -33 0 -33 22 0 29 27
59 46 52 7 -3 19 1 26 7 7 7 21 16 31 20 19 7 24 37 5 37 -9 0 -9 3 0 12 16
16 15 28 -3 28 -8 0 -15 4 -15 9 0 5 9 7 20 4 13 -3 20 -14 20 -29 0 -14 6
-24 14 -24 8 0 17 -9 21 -19 6 -20 82 -98 111 -114 15 -8 16 -5 10 26 -6 31
-3 40 19 59 14 12 25 26 25 32 0 6 5 18 10 26 7 12 13 11 34 -9 l26 -24 24 26
c14 15 32 27 41 27 24 0 24 79 -1 118 -25 39 17 100 76 111 3 0 10 -3 15 -7z
m-412 -853 c8 -13 2 -28 -27 -69 -35 -49 -37 -56 -31 -101 6 -45 5 -49 -14
-49 -22 0 -27 15 -12 39 6 10 1 26 -16 52 -31 47 -34 116 -7 136 25 18 94 13
107 -8z m-1053 -1563 c94 -225 96 -198 -18 -253 -53 -26 -98 -50 -100 -55 -2
-4 -10 -8 -19 -8 -12 0 -14 9 -8 48 5 39 3 51 -11 63 -16 13 -16 12 -6 -8 8
-13 8 -24 2 -28 -5 -3 -7 -12 -4 -19 3 -8 0 -17 -7 -22 -7 -4 -10 -3 -5 4 3 6
2 13 -3 16 -5 3 -12 -4 -16 -17 -7 -21 -8 -21 -12 6 -3 16 0 34 5 40 5 7 8 22
7 35 -1 15 4 22 15 22 17 0 49 100 91 288 7 29 16 49 19 45 4 -5 35 -75 70
-157z m993 5 c-10 -10 -29 -22 -43 -26 -14 -4 -37 -16 -52 -26 -14 -11 -35
-19 -46 -19 -12 0 -51 -16 -89 -35 -37 -19 -81 -35 -98 -35 -16 0 -55 -7 -85
-15 -30 -8 -56 -13 -58 -11 -2 2 15 17 38 32 23 16 52 39 64 50 42 40 82 54
151 54 37 0 65 -4 65 -10 0 -16 20 -12 53 12 18 13 34 23 37 24 3 0 12 3 20 7
55 21 64 21 43 -2z m-1267 -39 c21 -13 26 -66 9 -98 -24 -46 -19 -61 11 -33
23 20 25 21 16 4 -5 -11 -20 -29 -31 -39 -12 -11 -21 -26 -21 -35 0 -10 16 1
41 29 l41 45 -6 -45 c-12 -72 -15 -78 -37 -73 -20 6 -20 6 2 29 12 13 19 27
15 31 -4 4 -20 -7 -36 -24 -31 -33 -66 -38 -64 -10 0 10 1 31 2 48 1 16 6 28
10 25 4 -2 6 11 4 30 -2 18 -8 31 -13 28 -6 -3 -7 6 -3 23 9 38 13 43 31 43 9
0 13 6 9 15 -6 16 2 19 20 7z m652 -118 c25 -5 31 -12 36 -44 3 -21 11 -40 18
-42 7 -3 8 -9 3 -18 -7 -11 -12 -7 -21 15 -10 25 -14 27 -19 13 -4 -10 -18
-18 -30 -18 -20 0 -23 -5 -22 -32 2 -33 3 -33 50 -31 26 0 47 -3 47 -9 0 -5 5
-6 10 -3 6 3 10 1 10 -4 0 -6 -12 -11 -26 -11 -14 0 -23 4 -19 10 3 6 1 10 -4
10 -6 0 -11 -4 -11 -10 0 -15 -74 -12 -96 5 -10 8 -14 15 -9 15 6 0 17 -6 24
-12 11 -11 13 -10 8 4 -3 9 -1 19 6 22 8 3 9 7 2 13 -17 14 -48 75 -49 97 -2
34 25 43 92 30z m-286 -212 c-3 -24 -15 -34 -70 -62 -62 -30 -165 -70 -183
-70 -4 0 -2 16 4 35 6 19 14 35 18 35 4 0 20 5 36 12 15 6 33 12 38 14 34 10
135 51 141 57 14 14 20 6 16 -21z m-402 -152 c-13 -8 -13 -14 4 -45 19 -34 19
-36 1 -49 -17 -12 -17 -13 5 -19 12 -3 19 -10 15 -16 -3 -6 1 -11 10 -11 11 0
15 -5 11 -16 -4 -9 -2 -13 5 -8 11 6 59 -14 59 -25 0 -3 -7 -14 -14 -24 -16
-20 -126 -34 -126 -16 0 7 -10 9 -25 5 -14 -4 -25 -2 -25 3 0 5 -9 11 -19 14
-13 3 -22 17 -26 41 -4 20 -11 33 -16 30 -5 -3 -9 6 -9 21 0 15 14 40 35 63
28 30 33 33 28 15 -3 -14 -1 -23 6 -23 18 0 13 -20 -14 -52 -26 -30 -32 -48
-16 -48 5 0 14 14 21 30 7 17 29 44 48 60 37 30 39 50 4 31 -31 -16 -47 -14
-32 4 6 8 8 20 4 26 -5 9 -1 10 14 7 12 -4 20 -2 16 3 -3 5 7 9 23 9 21 0 25
-2 13 -10z"/>
<path d="M4908 2528 c-26 -9 -28 -14 -28 -61 1 -64 21 -124 49 -144 22 -15 29
-43 10 -43 -15 0 -2 -69 21 -119 29 -58 97 -85 153 -60 21 9 25 20 30 68 5 58
-10 91 -41 91 -8 0 -12 6 -9 15 4 8 2 17 -3 20 -6 4 -10 26 -10 50 0 44 -22
67 -44 45 -16 -16 -51 -12 -69 8 -21 24 -33 77 -18 86 15 10 14 56 -1 55 -7 0
-25 -5 -40 -11z"/>
<path d="M2997 8769 c-37 -9 -97 -36 -97 -44 0 -2 15 1 32 6 18 5 73 8 123 7
90 -2 90 -2 18 -5 -40 -2 -73 -8 -73 -13 0 -5 -17 -10 -37 -12 -20 -2 -39 -9
-41 -17 -3 -10 0 -12 12 -8 10 4 36 7 59 7 33 0 39 3 27 11 -12 9 -12 10 3 5
10 -3 23 -6 29 -6 6 0 -1 -9 -15 -20 -14 -11 -40 -20 -61 -20 -19 0 -69 -5
-111 -11 -73 -11 -75 -12 -75 -40 0 -16 -13 -56 -29 -89 -16 -33 -25 -60 -20
-60 5 0 9 -4 9 -10 0 -5 -7 -10 -15 -10 -9 0 -15 -9 -15 -23 0 -13 -5 -28 -12
-35 -8 -8 -8 -12 -1 -12 6 0 13 6 16 14 7 18 55 51 63 43 3 -3 -15 -24 -40
-47 -35 -32 -46 -51 -51 -83 -6 -40 6 -192 19 -247 15 -65 17 -80 9 -80 -12 0
-16 -67 -4 -75 15 -9 1 -37 -15 -31 -8 3 -14 1 -14 -4 0 -4 -12 -22 -26 -39
-14 -17 -23 -35 -20 -40 3 -5 -1 -12 -9 -15 -12 -4 -21 6 -34 37 -32 75 -52
158 -46 188 5 22 2 31 -10 35 -26 10 -38 -10 -31 -51 4 -19 11 -33 16 -30 18
11 22 -19 5 -32 -17 -12 -17 -13 -2 -13 20 0 35 -29 20 -39 -7 -4 -4 -22 8
-49 19 -44 51 -65 85 -56 26 7 94 101 94 130 0 12 5 26 10 29 6 3 10 0 10 -7
0 -7 26 -64 57 -127 40 -80 65 -119 84 -130 34 -19 42 -46 33 -113 -5 -34 -4
-49 3 -45 19 12 25 -73 7 -101 -13 -20 -18 -22 -26 -11 -6 10 -7 6 -2 -11 9
-33 11 -35 29 -20 21 18 25 11 31 -51 2 -30 7 -66 10 -80 4 -23 1 -28 -26 -38
-25 -8 -31 -15 -28 -33 2 -19 9 -23 34 -21 l30 3 13 -78 c14 -80 44 -164 66
-182 9 -7 35 36 105 177 99 197 178 313 264 389 43 38 48 46 35 54 -14 8 -15
16 -6 55 8 34 13 42 19 31 5 -9 14 -16 20 -16 7 0 21 -8 32 -19 12 -10 33 -21
49 -25 27 -6 27 -6 27 41 1 48 13 295 25 508 9 137 -3 211 -50 318 -105 236
-161 296 -320 342 -33 10 -87 26 -119 36 -64 20 -99 22 -159 8z"/>
<path d="M27 7907 c-25 -10 -27 -14 -27 -74 0 -35 4 -63 8 -63 5 0 35 10 68
21 42 15 89 22 164 25 58 2 108 4 111 4 4 0 9 9 12 20 3 13 0 20 -9 20 -8 0
-14 -4 -14 -10 0 -15 -60 0 -115 30 -56 31 -152 44 -198 27z"/>
<path d="M2725 7533 c-10 -3 -41 -24 -68 -46 -45 -38 -48 -43 -42 -77 l6 -37
-58 -12 c-127 -29 -210 -98 -268 -224 -46 -99 -77 -273 -62 -347 11 -53 6 -47
41 -56 21 -5 27 -4 22 5 -4 6 -2 11 4 11 7 0 14 -9 17 -20 3 -11 9 -20 14 -20
5 0 9 -14 9 -32 l0 -32 20 22 c12 12 24 22 27 22 4 0 -7 -15 -25 -33 -22 -23
-29 -36 -22 -47 23 -37 -31 -41 -83 -6 l-35 24 -21 -67 c-19 -61 -27 -94 -50
-211 -7 -35 -9 -39 -10 -15 -1 17 -5 25 -10 20 -11 -12 -2 -127 9 -120 8 5 24
-24 21 -38 -1 -5 8 -6 19 -2 15 5 22 0 30 -19 11 -29 31 -34 50 -11 21 25 51
18 63 -16 12 -32 30 -35 82 -14 19 8 19 7 4 -11 -8 -10 -14 -29 -13 -42 1 -12
-3 -25 -7 -28 -5 -3 -4 -14 2 -25 10 -19 9 -19 -10 -9 -25 13 -26 7 -5 -25 18
-27 15 -66 -5 -73 -10 -3 -13 2 -9 20 4 22 2 24 -24 20 -20 -3 -30 -12 -34
-28 -4 -15 -13 -24 -26 -24 -16 0 -19 5 -14 24 5 19 1 25 -17 30 -33 9 -37 8
-37 -12 0 -24 -8 -32 -26 -25 -8 3 -14 16 -14 30 0 35 -18 63 -40 63 -17 0
-38 -35 -27 -47 3 -2 0 -19 -6 -36 l-11 -32 -8 25 c-7 25 -3 -22 8 -80 7 -33
-15 -60 -51 -64 -16 -2 -31 -8 -33 -14 -4 -12 36 -42 58 -42 16 0 43 26 53 51
4 10 6 10 6 -3 1 -9 -3 -28 -8 -41 -6 -15 -5 -51 4 -102 15 -83 67 -245 73
-226 5 14 22 15 22 1 0 -18 164 -463 167 -453 3 9 -59 190 -92 267 -9 21 -14
50 -11 65 3 14 1 33 -4 41 -8 11 -9 7 -4 -14 13 -56 -13 -17 -31 46 -9 34 -20
69 -23 77 -3 9 -1 13 3 9 5 -5 13 2 19 15 19 36 110 68 180 63 32 -2 63 -10
70 -16 8 -9 -1 -10 -37 -5 -44 7 -49 6 -45 -10 2 -12 20 -23 51 -32 26 -7 47
-18 47 -24 0 -7 -7 -8 -17 -4 -30 13 -73 18 -73 8 0 -5 14 -13 32 -18 31 -10
51 -35 28 -35 -6 0 -8 5 -4 13 6 9 5 9 -8 0 -8 -7 -18 -9 -23 -5 -11 10 3 -35
28 -88 11 -25 21 -49 22 -55 3 -31 28 -116 35 -120 10 -6 21 48 15 83 -2 15
-7 56 -9 91 -5 61 -5 63 13 47 9 -9 25 -16 33 -16 24 0 34 -84 13 -116 -12
-19 -12 -24 -2 -24 19 0 77 63 77 83 0 9 6 17 13 17 14 0 95 123 116 177 7 17
10 37 5 44 -4 7 -3 10 3 6 6 -4 14 0 17 8 3 9 -1 18 -9 21 -22 9 -18 23 10 34
35 13 31 27 -10 34 -35 7 -46 20 -22 29 8 3 5 11 -10 26 -13 12 -23 29 -23 39
0 9 -3 27 -6 40 -6 21 -4 22 22 18 16 -3 45 -10 64 -16 47 -13 52 -13 48 7 -2
9 -7 16 -13 16 -5 -1 -28 8 -50 20 -33 16 -37 17 -26 3 8 -9 12 -19 9 -21 -7
-8 -38 6 -38 16 0 5 -6 9 -14 9 -7 0 -16 14 -20 31 -9 45 -8 61 4 54 16 -10
12 12 -6 30 -9 8 -18 34 -22 57 -4 36 -3 40 11 35 10 -4 17 -2 17 3 0 6 -6 10
-14 10 -19 0 -29 30 -15 46 9 11 8 18 -3 32 -19 21 -33 92 -18 92 5 0 10 -4
10 -10 0 -5 11 -12 24 -16 34 -8 53 -32 62 -78 5 -31 4 -38 -7 -34 -47 18 -59
19 -59 5 0 -8 18 -22 40 -32 23 -10 40 -25 40 -35 0 -9 5 -21 12 -28 7 -7 8
-12 4 -12 -5 0 -3 -7 4 -15 19 -23 5 -28 -29 -10 -30 15 -39 11 -23 -10 4 -6
24 -21 45 -33 l38 -22 -6 21 c-7 20 -5 20 28 -5 25 -19 37 -24 43 -15 4 7 -3
19 -19 31 -60 44 -68 54 -73 93 -2 22 -7 48 -10 59 -4 13 4 9 31 -15 20 -19
50 -42 66 -52 l29 -19 0 32 c0 25 -3 30 -18 26 -11 -4 -35 8 -67 35 -38 31
-53 51 -62 84 -6 24 -16 51 -22 62 -9 16 -10 16 -11 1 0 -15 -4 -15 -30 -6
-31 10 -55 41 -45 58 3 5 1 11 -5 15 -5 3 -10 16 -10 28 0 12 4 17 8 12 4 -6
19 -16 35 -22 24 -11 27 -10 27 5 1 15 2 15 15 -2 22 -30 18 -2 -6 38 -25 42
-34 46 -25 11 7 -26 6 -26 -23 -10 -36 18 -51 43 -51 85 l0 30 28 -17 c15 -10
32 -25 39 -33 9 -12 9 -7 0 21 -8 25 -20 39 -39 47 -16 6 -28 18 -29 29 0 10
-2 28 -3 41 -2 18 1 22 16 19 25 -7 23 17 -3 34 -13 9 -22 29 -26 57 -6 48 11
59 27 17 5 -14 22 -37 37 -50 29 -25 49 -33 38 -14 -4 6 2 5 13 -2 12 -7 23
-29 27 -48 10 -59 14 -67 35 -68 11 -1 37 -14 57 -28 l38 -27 -35 31 c-19 17
-37 31 -41 31 -4 0 -9 7 -13 15 -4 13 -2 13 14 5 10 -5 22 -15 25 -20 3 -6 11
-10 16 -10 17 0 -9 37 -43 61 -28 20 -31 21 -25 5 6 -16 5 -17 -8 -6 -9 7 -13
21 -10 31 3 9 1 20 -5 24 -5 3 -10 15 -10 25 0 13 -5 17 -14 14 -8 -3 -17 0
-21 5 -3 6 -10 9 -14 6 -16 -9 -63 44 -56 64 3 11 0 23 -6 27 -8 4 -9 3 -5 -4
4 -7 1 -12 -8 -12 -9 0 -16 7 -16 15 0 14 12 19 33 16 12 -2 8 16 -8 29 -13
11 -14 10 -9 -4 3 -9 1 -16 -5 -16 -6 0 -10 11 -9 25 3 31 9 31 39 -1 21 -23
67 -49 77 -44 9 4 141 -145 152 -169 12 -31 70 -59 70 -35 0 8 -17 31 -37 52
-21 20 -44 46 -51 57 -7 11 -10 14 -6 6 4 -7 -7 -4 -24 9 -17 12 -28 28 -25
36 6 17 -11 47 -66 116 -32 40 -47 53 -49 42 -2 -9 1 -20 8 -24 6 -4 12 -14
14 -22 1 -8 21 -35 44 -59 23 -24 42 -48 42 -54 -1 -5 -15 6 -32 25 -18 19
-36 35 -40 35 -5 0 -12 5 -16 10 -4 6 -27 26 -51 44 -41 33 -43 36 -37 75 4
22 9 42 11 44 2 2 15 -4 29 -13 33 -22 36 -2 4 32 -25 26 -22 35 10 26 15 -4
33 -26 52 -64 32 -63 50 -81 50 -51 0 10 -10 27 -21 38 -22 20 -54 83 -45 91
2 2 7 -5 11 -16 6 -19 17 -26 38 -22 9 1 27 -42 32 -79 2 -14 7 -36 11 -49 5
-17 4 -22 -4 -17 -9 5 -9 0 -2 -21 18 -50 33 -74 44 -70 18 7 66 -33 81 -66
11 -27 14 -28 14 -10 1 30 -29 80 -56 92 -12 6 -30 27 -39 48 -20 47 -44 123
-39 123 2 0 14 -18 27 -39 13 -22 37 -50 53 -62 l30 -23 -27 30 c-29 32 -41
71 -20 66 15 -3 16 -9 -13 116 -43 181 -45 190 -45 232 0 29 -4 40 -12 37 -7
-2 -12 -13 -10 -24 1 -11 -4 -25 -11 -32 -12 -10 -15 -5 -15 29 0 22 3 40 9
40 5 0 9 7 9 15 0 9 7 27 16 40 9 14 14 25 10 25 -3 0 2 9 11 20 10 11 23 20
31 20 7 0 16 8 19 18 4 9 16 25 28 34 19 16 19 16 -17 9 -34 -8 -36 -7 -42 20
-8 43 -71 75 -121 62z m-136 -1333 c12 -75 21 -154 21 -175 0 -22 4 -57 9 -77
8 -34 7 -37 -16 -43 -32 -8 -42 1 -19 18 17 12 17 15 3 29 -9 9 -14 18 -11 21
7 7 -34 83 -64 118 -13 15 -24 31 -24 36 0 4 -3 13 -8 18 -20 24 -2 118 37
191 l38 74 7 -38 c4 -20 16 -98 27 -172z m-95 -142 c28 -30 66 -112 56 -122
-18 -18 -11 -42 19 -64 27 -19 28 -24 21 -64 -5 -24 -11 -58 -13 -76 -3 -18
-17 -48 -31 -67 -31 -41 -32 -47 -6 -70 26 -24 25 -49 -4 -110 l-25 -50 3 60
c4 76 -11 159 -57 313 -41 137 -44 164 -22 182 8 7 15 19 15 26 0 14 21 54 28
54 2 0 9 -6 16 -12z"/>
<path d="M3341 7197 c-13 -23 -57 -92 -97 -153 -83 -129 -98 -156 -111 -204
l-10 -35 53 3 c29 2 57 9 62 15 12 16 52 129 52 148 0 8 6 23 13 33 13 17 15
17 45 2 25 -13 33 -14 36 -4 9 27 36 126 36 131 0 3 -13 8 -30 12 -16 4 -30
11 -30 16 0 12 17 11 41 -1 13 -8 19 -7 19 0 0 6 -13 13 -28 16 -25 5 -28 10
-24 35 2 16 3 29 1 29 -2 0 -15 -19 -28 -43z"/>
<path d="M4541 5889 c-52 -57 -60 -78 -26 -65 9 3 13 10 10 16 -4 6 1 7 11 3
26 -10 -154 -184 -183 -177 -15 4 -25 -1 -34 -17 -12 -23 -12 -23 15 -6 42 28
30 6 -29 -52 -30 -30 -52 -57 -50 -60 4 -4 272 254 343 331 13 15 28 25 33 23
4 -3 11 0 14 6 7 10 -31 60 -44 58 -3 0 -30 -27 -60 -60z"/>
<path d="M2435 5253 c-11 -2 -36 -11 -56 -20 l-37 -15 20 -59 c11 -32 23 -59
27 -59 4 0 16 7 27 15 10 8 34 15 52 15 17 0 32 2 32 5 0 17 -34 125 -39 124
-3 -1 -15 -3 -26 -6z"/>
<path d="M2890 4851 c0 -26 22 -52 85 -96 36 -26 65 -51 65 -56 0 -19 96 -101
165 -140 39 -22 81 -47 95 -55 14 -8 77 -39 140 -70 63 -30 134 -66 158 -79
l42 -24 -15 30 c-9 16 -20 27 -24 24 -5 -2 -26 7 -47 21 -21 15 -63 38 -94 51
-97 45 -195 94 -210 107 -8 7 -37 25 -65 41 -46 26 -155 126 -155 142 0 4 21
-13 48 -38 75 -72 92 -80 27 -12 -33 33 -62 60 -65 60 -10 -3 -85 47 -117 77
-18 16 -33 24 -33 17z"/>
<path d="M3440 4710 c0 -11 5 -20 10 -20 6 0 30 -9 54 -21 43 -20 82 -32 220
-70 38 -10 80 -26 94 -35 13 -9 34 -18 46 -19 11 -2 39 -6 61 -10 50 -7 187
-47 181 -52 -2 -2 -23 1 -46 7 -24 6 -66 15 -94 20 -28 4 -64 11 -81 15 l-30
6 30 -25 c17 -14 40 -26 52 -26 25 0 206 -44 222 -54 15 -9 61 12 61 28 0 8 3
16 8 19 4 2 2 2 -5 1 -8 -2 -13 16 -15 54 l-3 56 -40 -1 c-22 -1 -62 4 -90 12
-75 21 -338 75 -362 75 -7 0 -13 -5 -13 -11 0 -6 6 -9 13 -6 7 2 24 -4 37 -15
l24 -19 -30 7 c-75 18 -227 64 -237 71 -7 5 -24 14 -39 21 -25 10 -28 10 -28
-8z"/>
<path d="M3512 4573 c4 -20 88 -56 233 -98 100 -29 219 -67 250 -80 18 -8 19
-7 6 8 -7 9 -18 17 -24 17 -5 0 -15 7 -21 16 -6 8 -92 39 -191 68 -99 29 -197
61 -218 70 -37 16 -38 16 -35 -1z"/>
<path d="M190 829 c-19 -10 -42 -19 -50 -19 -19 0 -73 -57 -80 -85 -4 -13 -16
-21 -33 -23 -24 -3 -27 -7 -27 -43 0 -40 0 -41 32 -34 40 9 71 34 64 52 -3 7
-1 13 4 13 14 0 60 49 57 62 -1 7 9 13 23 14 13 1 31 11 38 23 8 12 26 21 41
22 26 0 26 0 4 11 -13 6 -23 15 -23 20 0 12 -11 9 -50 -13z"/>
</g>
</svg>
